nColumns=19
nRows=50
DataType=double
version=3
OpenSimVersion=4.1
endheader
time	ground_force_1_vx	ground_force_1_vy	ground_force_1_vz	ground_force_1_px	ground_force_1_py	ground_force_1_pz	ground_force_1_mx	ground_force_1_my	ground_force_1_mz	ground_force_2_vx	ground_force_2_vy	ground_force_2_vz	ground_force_2_px	ground_force_2_py	ground_force_2_pz	ground_force_2_mx	ground_force_2_my	ground_force_2_mz
4.11	0	0	0	-0.00166399	0	-0.000982961	0	0	0	0	0	0	-0.00166436	0	-0.00098229	0	0	0
4.12	0	0	0	-0.00166401	0	-0.000982882	0	0	0	0	0	0	-0.00166437	0	-0.000982221	0	0	0
4.13	0	0	0	-0.00166402	0	-0.000982802	0	0	0	0	0	0	-0.00166438	0	-0.000982153	0	0	0
4.14	0	0	0	-0.00166403	0	-0.000982724	0	0	0	0	0	0	-0.00166439	0	-0.000982085	0	0	0
4.15	0	0	0	-0.00166405	0	-0.000982646	0	0	0	0	0	0	-0.0016644	0	-0.000982017	0	0	0
4.16	0	0	0	-0.00166406	0	-0.000982568	0	0	0	0.754127	13.5625	-0.408609	-0.00166441	0	-0.00098195	0	0	0
4.17	0	0	0	-0.00166407	0	-0.000982491	0	0	0	0.559328	36.0504	-5.08654	1.07144	0	-0.320799	-0	1.31556	-0
4.18	0	0	0	-0.00166409	0	-0.000982414	0	0	0	3.78829	127.778	-13.6465	0.989097	0	-0.349762	-0	0.883658	-0
4.19	0	0	0	-0.0016641	0	-0.000982338	0	0	0	3.22685	386.178	-24.593	1.01322	0	-0.33205	-0	0.77592	-0
4.2	0	0	0	-0.00166411	0	-0.000982262	0	0	0	-36.2313	819.506	-28.1109	1.01296	0	-0.326659	0	-0.146914	0
4.21	0	0	0	-0.00166412	0	-0.000982187	0	0	0	-123.751	1204.46	-17.1347	1.0082	0	-0.32358	0	-2.20834	0
4.22	0	0	0	-0.00166414	0	-0.000982113	0	0	0	-195.642	1314.99	-27.5602	0.998645	0	-0.321987	0	-4.39841	0
4.23	0	0	0	-0.00166415	0	-0.000982039	0	0	0	-216.583	1245.75	-85.6124	0.980886	0	-0.321781	0	-5.31316	0
4.24	0	0	0	-0.00166416	0	-0.000981965	0	0	0	-214.466	1200.03	-104.018	0.951208	0	-0.322573	0	-4.67056	0
4.25	0	0	0	-0.00166417	0	-0.000981893	0	0	0	-198.802	1238.05	-28.3265	0.911653	0	-0.323563	0	-3.6317	0
4.26	0	0	0	-0.00166419	0	-0.00098182	0	0	0	-160.088	1319.67	28.108	0.871853	0	-0.324429	0	-3.40612	0
4.27	0	0	0	-0.0016642	0	-0.000981749	0	0	0	-105.95	1388.69	1.34328	0.83873	0	-0.325372	0	-3.93333	0
4.28	0	0	0	-0.00166421	0	-0.000981678	0	0	0	-62.3482	1416.56	-26.5042	0.811405	0	-0.32642	0	-4.26085	0
4.29	0	0	0	-0.00166422	0	-0.000981608	0	0	0	-31.7413	1406.49	-11.1048	0.78607	0	-0.327493	0	-3.81921	0
4.3	0	0	0	-0.00166423	0	-0.000981538	0	0	0	-1.465	1366.57	3.10123	0.75978	0	-0.328533	0	-2.97742	0
4.31	0	0	0	-0.00166424	0	-0.000981469	0	0	0	31.492	1301.23	0.883981	0.731356	0	-0.329237	0	-2.57839	0
4.32	0	0	0	-0.00166426	0	-0.000981401	0	0	0	66.6058	1217.57	-3.76975	0.70095	0	-0.329068	0	-3.12707	0
4.33	0	0	0	-0.00166427	0	-0.000981334	0	0	0	105.645	1112.86	-13.7025	0.66893	0	-0.327759	0	-4.23153	0
4.34	0	0	0	-0.00166428	0	-0.000981267	0	0	0	139.432	973.257	-26.5584	0.634685	0	-0.325636	0	-4.65572	0
4.35	0	0	0	-0.00166429	0	-0.000981201	0	0	0	155.785	786.402	-33.7322	0.595955	0	-0.323441	0	-3.15747	0
4.36	0	0	0	-0.0016643	0	-0.000981135	0	0	0	150.012	561.108	-38.0536	0.548727	0	-0.321955	-0	0.266198	-0
4.37	0	0	0	-0.00166431	0	-0.00098107	0	0	0	125.749	345.103	-41.7357	0.48671	0	-0.321536	-0	3.87899	-0
4.38	0	0	0	-0.00166432	0	-0.000981007	0	0	0	92.2638	186.096	-32.4672	0.394022	0	-0.321038	-0	5.42921	-0
4.39	0	0	0	-0.00166433	0	-0.000980943	0	0	0	55.8646	91.7347	-10.1819	0.172314	0	-0.310049	-0	4.297	-0
4.4	0	0	0	-0.00166434	0	-0.000980881	0	0	0	21.7029	43.9773	0.269946	2.6157	0	-0.604963	-0	2.15925	-0
4.41	0	0	0	-0.00166435	0	-0.000980819	0	0	0	1.68513	18.9011	-3.33603	-0.00166462	0	-0.000980441	0	0	0
4.42	0	0	0	-0.00166436	0	-0.000980758	0	0	0	0	0	0	-0.00166463	0	-0.000980388	0	0	0
4.43	0	0	0	-0.00166437	0	-0.000980698	0	0	0	0	0	0	-0.00166464	0	-0.000980336	0	0	0
4.44	0	0	0	-0.00166438	0	-0.000980639	0	0	0	0	0	0	-0.00166465	0	-0.000980285	0	0	0
4.45	0	0	0	-0.00166439	0	-0.00098058	0	0	0	0	0	0	-0.00166465	0	-0.000980234	0	0	0
4.46	0	0	0	-0.0016644	0	-0.000980523	0	0	0	0	0	0	-0.00166466	0	-0.000980185	0	0	0
4.47	-1.8903	11.6823	0.112851	-0.00166441	0	-0.000980466	0	0	0	0	0	0	-0.00166467	0	-0.000980136	0	0	0
4.48	-0.0217365	28.4433	-2.68939	-0.00166442	0	-0.00098041	0	0	0	0	0	0	-0.00166467	0	-0.000980087	0	0	0
4.49	8.69489	112.432	-9.97499	0.992368	0	-0.293129	-0	1.29367	-0	0	0	0	-0.00166468	0	-0.00098004	0	0	0
4.5	21.0971	369.101	-20.3484	1.01111	0	-0.296411	0	-0.57522	0	0	0	0	-0.00166469	0	-0.000979993	0	0	0
4.51	3.23396	836.206	-9.34811	1.01139	0	-0.297115	-0	1.81403	-0	0	0	0	-0.00166469	0	-0.000979947	0	0	0
4.52	-73.0167	1267.32	63.5472	1.00975	0	-0.298039	-0	6.26333	-0	0	0	0	-0.0016647	0	-0.000979901	0	0	0
4.53	-159.974	1370.54	144.948	1.00537	0	-0.299363	-0	8.48757	-0	0	0	0	-0.00166471	0	-0.000979857	0	0	0
4.54	-212.07	1269.85	102.006	0.993896	0	-0.300781	-0	6.82917	-0	0	0	0	-0.00166471	0	-0.000979813	0	0	0
4.55	-224.986	1220.43	-24.3413	0.968964	0	-0.301149	-0	3.51431	-0	0	0	0	-0.00166472	0	-0.00097977	0	0	0
4.56	-203.98	1285.14	-67.5036	0.930609	0	-0.299439	-0	1.62701	-0	0	0	0	-0.00166473	0	-0.000979727	0	0	0
4.57	-160.706	1399.5	-22.9017	0.889963	0	-0.296815	-0	1.75033	-0	0	0	0	-0.00166473	0	-0.000979686	0	0	0
4.58	-105.221	1483.25	-1.62179	0.855716	0	-0.295196	-0	2.10274	-0	0	0	0	-0.00166474	0	-0.000979645	0	0	0
4.59	-61.7893	1502.96	-20.352	0.827078	0	-0.294854	-0	1.17243	-0	0	0	0	-0.00166474	0	-0.000979605	0	0	0
4.6	-30.7309	1474.52	-24.2593	0.799585	0	-0.295011	0	-0.704793	0	0	0	0	-0.00166475	0	-0.000979566	0	0	0
